<svg version="1.1" id="Layer_1" xmlns="http://www.w3.org/2000/svg" xmlns:xlink="http://www.w3.org/1999/xlink" x="0px" y="0px"
	 width="100%" viewBox="0 0 728 341" enable-background="new 0 0 728 341" xml:space="preserve">
<path fill="#FFFFFF" opacity="1.000000" stroke="none" 
	d="
M439.000000,342.000000 
	C292.700745,342.000000 146.901505,342.000000 1.051124,342.000000 
	C1.051124,228.393997 1.051124,114.787971 1.051124,1.090972 
	C243.549271,1.090972 486.098572,1.090972 728.823975,1.090972 
	C728.823975,114.666451 728.823975,228.333191 728.823975,342.000000 
	C632.454590,342.000000 535.977295,342.000000 439.000000,342.000000 
M441.671326,140.767517 
	C443.393799,127.624855 439.469330,120.210503 427.578339,114.651161 
	C423.820038,112.894051 419.835785,111.625076 415.983765,110.061668 
	C413.522858,109.062889 410.945007,108.193329 408.751892,106.758064 
	C407.585236,105.994545 406.596130,104.168137 406.549408,102.786903 
	C406.522156,101.980415 408.621063,100.310532 409.569061,100.441017 
	C411.139954,100.657242 412.816254,101.767075 413.944397,102.972076 
	C414.729370,103.810570 414.670959,105.438660 415.010498,106.798935 
	C423.736572,106.798935 432.327393,106.798935 441.294464,106.798935 
	C441.307129,98.301071 438.682739,91.333305 432.003326,86.129761 
	C420.908752,77.486656 399.953583,77.383484 388.760315,85.919899 
	C375.492523,96.038414 377.067749,116.601517 391.791199,124.407127 
	C394.862823,126.035545 398.198059,127.175674 401.438538,128.474152 
	C405.448456,130.080948 409.604767,131.383667 413.442139,133.323563 
	C414.646851,133.932587 415.933868,136.505341 415.541473,137.579636 
	C415.104095,138.777237 412.176514,140.354675 411.415344,139.910736 
	C408.792694,138.381180 406.642395,136.041748 404.312164,134.010818 
	C404.613953,133.620407 404.915741,133.229980 405.217529,132.839569 
	C396.782074,132.839569 388.346619,132.839569 379.698517,132.839569 
	C379.461731,146.454086 386.804413,154.423111 398.192200,159.968781 
	C393.112122,159.968781 388.032043,159.968781 382.762909,159.968781 
	C382.762909,177.736816 382.762909,195.142212 382.762909,212.882767 
	C387.390991,212.882767 391.700714,212.909409 396.009979,212.875381 
	C400.461945,212.840225 405.190948,214.104309 408.196838,208.860916 
	C408.886566,207.657761 411.812744,207.257645 413.690460,207.301880 
	C420.033447,207.451416 423.325012,213.320435 421.393433,220.580719 
	C420.466980,224.063065 418.654205,226.675186 414.783295,227.123779 
	C411.055511,227.555756 407.887360,226.767014 405.837341,223.149109 
	C405.205719,222.034424 403.897552,220.574997 402.855469,220.539032 
	C396.062378,220.304672 389.257294,220.418594 382.503906,220.418594 
	C381.764832,230.420212 387.306000,239.455032 396.810699,243.944107 
	C404.257935,247.461472 412.143799,248.147751 420.244263,247.091370 
	C432.055786,245.551025 440.680939,238.563507 443.362457,227.330521 
	C446.384369,214.671509 445.407776,202.581207 434.538727,193.617111 
	C431.626190,191.215027 427.485474,189.906326 423.693146,189.053299 
	C416.845276,187.512939 410.266846,189.104721 404.219299,192.987076 
	C404.219299,188.663757 404.219299,184.884857 404.219299,180.522919 
	C416.216949,180.522919 427.949219,180.522919 439.613068,180.522919 
	C439.613068,173.333496 439.613068,166.744873 439.613068,159.564407 
	C434.681885,159.564407 430.070801,159.564407 425.459717,159.564407 
	C433.185333,155.344696 439.171814,150.168579 441.671326,140.767517 
M461.338043,174.944199 
	C455.284637,193.025208 455.055115,211.211639 460.721222,229.385880 
	C464.150543,240.385559 472.021790,246.377289 483.337616,247.679733 
	C487.278229,248.133301 491.362610,248.234238 495.288361,247.747009 
	C505.710907,246.453400 514.123108,241.692764 517.984741,231.463531 
	C522.066162,220.652130 522.072144,209.649765 514.843506,200.125275 
	C512.127136,196.546143 507.508453,193.681870 503.173706,192.211838 
	C494.187042,189.164261 485.493805,190.593414 477.774048,197.336655 
	C478.229645,192.185364 478.877869,187.269180 480.156586,182.522842 
	C481.110870,178.980942 483.990814,177.183197 487.716736,177.100464 
	C491.423615,177.018143 494.017487,178.608017 495.528381,182.142410 
	C496.012146,183.274033 497.300598,184.825470 498.270599,184.861893 
	C504.721924,185.104187 511.186798,184.987473 517.624023,184.987473 
	C518.064026,173.001816 509.725647,161.946182 498.490112,159.141693 
	C482.152679,155.063721 468.355988,160.735764 461.338043,174.944199 
M566.491394,184.095367 
	C567.272827,191.149475 564.249817,197.062927 559.644775,201.693390 
	C551.212341,210.172363 542.112854,217.986786 533.325012,226.114594 
	C532.150146,227.201202 530.326477,228.445206 530.246399,229.707886 
	C529.903137,235.117767 530.100098,240.561905 530.100098,245.811447 
	C550.867798,245.811447 570.933533,245.811447 590.896790,245.811447 
	C590.896790,239.463348 590.896790,233.536026 590.896790,227.146790 
	C581.374268,227.146790 572.154846,227.146790 561.632629,227.146790 
	C563.915894,225.376572 565.339600,224.551315 566.409180,223.397705 
	C572.832092,216.470779 580.161438,210.119629 585.296814,202.329468 
	C591.981079,192.189697 592.975769,180.539139 586.496948,169.632767 
	C579.969360,158.644333 568.883545,157.373032 557.507874,158.175140 
	C540.700562,159.360245 528.208984,173.790588 530.563965,188.916473 
	C537.804504,188.916473 545.049866,188.916473 552.401123,188.916473 
	C553.267212,184.186127 552.966248,178.819672 559.194946,177.952744 
	C563.126221,177.405579 565.496460,179.476532 566.491394,184.095367 
M353.641815,160.026764 
	C360.250916,160.026764 366.860016,160.026764 373.698120,160.026764 
	C373.698120,133.397598 373.698120,107.313469 373.698120,80.697632 
	C366.130096,80.697632 358.642548,81.037346 351.205048,80.573814 
	C346.532684,80.282631 344.558441,81.930916 343.051483,86.234253 
	C338.529938,99.146408 333.510376,111.884186 328.346375,125.589096 
	C327.309998,123.161018 326.627930,121.680405 326.038666,120.163734 
	C321.400360,108.225471 316.836884,96.257477 312.078796,84.367294 
	C311.507690,82.940163 309.943665,80.916267 308.782837,80.877502 
	C299.993683,80.584030 291.190277,80.717102 282.451752,80.717102 
	C282.451752,107.426376 282.451752,133.631393 282.451752,159.723267 
	C290.788666,159.723267 298.714417,159.723267 307.204712,159.723267 
	C307.204712,150.173630 307.204712,140.913879 307.204712,131.654129 
	C309.669220,136.267700 311.251526,140.964249 312.918488,145.630554 
	C314.590149,150.309967 315.079071,156.720764 318.422180,159.125565 
	C321.755432,161.523315 328.021118,159.581802 332.938263,160.118759 
	C337.330200,160.598373 338.966187,158.712875 340.143738,154.797943 
	C342.504669,146.948624 345.391968,139.257629 348.061981,131.501297 
	C348.952515,140.006302 349.076691,148.282547 348.887024,156.551590 
	C348.817993,159.560760 350.006653,160.401840 353.641815,160.026764 
M197.127426,105.499985 
	C197.110519,112.829353 197.278091,120.165092 197.024902,127.486290 
	C196.770981,134.827484 191.910400,138.370026 184.870010,136.729309 
	C179.271011,135.424469 178.370438,131.009018 178.313995,126.319435 
	C178.189697,115.992882 178.268494,105.663872 178.265472,95.335869 
	C178.264084,90.561760 178.265244,85.787659 178.265244,81.101440 
	C169.614059,81.101440 161.571594,81.101440 153.262955,81.101440 
	C153.262955,91.669731 153.164032,101.820801 153.295715,111.968872 
	C153.392838,119.452271 153.255707,126.999260 154.188492,134.396164 
	C155.395401,143.966995 160.417435,151.463943 168.974945,156.350403 
	C193.058731,170.102631 221.561172,154.288712 222.074234,126.729233 
	C222.343948,112.241692 222.137161,97.745163 222.119690,83.252724 
	C222.118774,82.487312 221.876251,81.722206 221.739151,80.915359 
	C213.503067,80.915359 205.555420,80.915359 197.127487,80.915359 
	C197.127487,88.927254 197.127487,96.713631 197.127426,105.499985 
M278.024872,148.528351 
	C278.024872,145.768234 278.024872,143.008133 278.024872,139.813751 
	C269.919922,139.813751 262.502472,139.813751 254.647339,139.813751 
	C254.647339,119.968437 254.647339,100.575432 254.647339,80.994766 
	C246.133194,80.994766 238.079941,80.994766 230.059174,80.994766 
	C230.059174,107.469536 230.059174,133.632690 230.059174,159.716919 
	C246.190552,159.716919 261.922363,159.716919 278.024872,159.716919 
	C278.024872,156.107132 278.024872,152.809402 278.024872,148.528351 
z"/>
<path fill="#079EDE" opacity="1.000000" stroke="none" 
	d="
M441.553101,141.173340 
	C439.171814,150.168579 433.185333,155.344696 425.459717,159.564407 
	C430.070801,159.564407 434.681885,159.564407 439.613068,159.564407 
	C439.613068,166.744873 439.613068,173.333496 439.613068,180.522919 
	C427.949219,180.522919 416.216949,180.522919 404.219299,180.522919 
	C404.219299,184.884857 404.219299,188.663757 404.219299,192.987076 
	C410.266846,189.104721 416.845276,187.512939 423.693146,189.053299 
	C427.485474,189.906326 431.626190,191.215027 434.538727,193.617111 
	C445.407776,202.581207 446.384369,214.671509 443.362457,227.330521 
	C440.680939,238.563507 432.055786,245.551025 420.244263,247.091370 
	C412.143799,248.147751 404.257935,247.461472 396.810699,243.944107 
	C387.306000,239.455032 381.764832,230.420212 382.503906,220.418594 
	C389.257294,220.418594 396.062378,220.304672 402.855469,220.539032 
	C403.897552,220.574997 405.205719,222.034424 405.837341,223.149109 
	C407.887360,226.767014 411.055511,227.555756 414.783295,227.123779 
	C418.654205,226.675186 420.466980,224.063065 421.393433,220.580719 
	C423.325012,213.320435 420.033447,207.451416 413.690460,207.301880 
	C411.812744,207.257645 408.886566,207.657761 408.196838,208.860916 
	C405.190948,214.104309 400.461945,212.840225 396.009979,212.875381 
	C391.700714,212.909409 387.390991,212.882767 382.762909,212.882767 
	C382.762909,195.142212 382.762909,177.736816 382.762909,159.968781 
	C388.032043,159.968781 393.112122,159.968781 398.192200,159.968781 
	C386.804413,154.423111 379.461731,146.454086 379.698517,132.839569 
	C388.346619,132.839569 396.782074,132.839569 405.217529,132.839569 
	C404.915741,133.229980 404.613953,133.620407 404.312164,134.010818 
	C406.642395,136.041748 408.792694,138.381180 411.415344,139.910736 
	C412.176514,140.354675 415.104095,138.777237 415.541473,137.579636 
	C415.933868,136.505341 414.646851,133.932587 413.442139,133.323563 
	C409.604767,131.383667 405.448456,130.080948 401.438538,128.474152 
	C398.198059,127.175674 394.862823,126.035545 391.791199,124.407127 
	C377.067749,116.601517 375.492523,96.038414 388.760315,85.919899 
	C399.953583,77.383484 420.908752,77.486656 432.003326,86.129761 
	C438.682739,91.333305 441.307129,98.301071 441.294464,106.798935 
	C432.327393,106.798935 423.736572,106.798935 415.010498,106.798935 
	C414.670959,105.438660 414.729370,103.810570 413.944397,102.972076 
	C412.816254,101.767075 411.139954,100.657242 409.569061,100.441017 
	C408.621063,100.310532 406.522156,101.980415 406.549408,102.786903 
	C406.596130,104.168137 407.585236,105.994545 408.751892,106.758064 
	C410.945007,108.193329 413.522858,109.062889 415.983765,110.061668 
	C419.835785,111.625076 423.820038,112.894051 427.578339,114.651161 
	C439.469330,120.210503 443.393799,127.624855 441.553101,141.173340 
M398.393524,154.363312 
	C406.837585,157.303528 415.355713,157.705963 423.881653,154.841660 
	C432.167786,152.057922 437.655731,144.948334 438.105865,136.705231 
	C438.571014,128.186783 434.975128,122.585159 426.180420,118.406876 
	C423.480164,117.124016 420.619659,116.182945 417.870117,114.998138 
	C413.758942,113.226562 409.454376,111.753265 405.651794,109.457771 
	C401.736633,107.094315 401.072754,102.951027 403.233826,99.495659 
	C406.241272,94.687042 413.547638,95.037811 417.181366,100.093201 
	C417.968231,101.187958 419.067566,102.809410 420.088348,102.859657 
	C425.634949,103.132668 431.202026,102.989326 437.022827,102.989326 
	C435.931519,95.279633 432.312836,90.064957 426.041107,87.129387 
	C415.679230,82.279373 405.023254,82.223297 394.644287,87.027786 
	C387.735382,90.225945 384.235962,95.975967 383.871368,103.720200 
	C383.498718,111.635910 387.043640,117.272438 393.742371,120.835083 
	C397.827393,123.007645 402.354736,124.343307 406.666718,126.095932 
	C409.899902,127.410088 413.647827,128.164825 416.154785,130.336594 
	C418.185455,132.095764 420.055634,135.902802 419.521362,138.234192 
	C418.991302,140.547104 415.641815,143.082489 413.036346,143.851318 
	C408.939636,145.060135 405.217407,143.318649 403.011963,139.206833 
	C402.509979,138.270950 401.584137,136.904831 400.811981,136.876801 
	C395.274933,136.675827 389.727203,136.769348 383.915619,136.769348 
	C385.309967,145.853195 390.292572,150.942474 398.393524,154.363312 
z"/>
<path fill="#039DDD" opacity="1.000000" stroke="none" 
	d="
M461.515198,174.607025 
	C468.355988,160.735764 482.152679,155.063721 498.490112,159.141693 
	C509.725647,161.946182 518.064026,173.001816 517.624023,184.987473 
	C511.186798,184.987473 504.721924,185.104187 498.270599,184.861893 
	C497.300598,184.825470 496.012146,183.274033 495.528381,182.142410 
	C494.017487,178.608017 491.423615,177.018143 487.716736,177.100464 
	C483.990814,177.183197 481.110870,178.980942 480.156586,182.522842 
	C478.877869,187.269180 478.229645,192.185364 477.774048,197.336655 
	C485.493805,190.593414 494.187042,189.164261 503.173706,192.211838 
	C507.508453,193.681870 512.127136,196.546143 514.843506,200.125275 
	C522.072144,209.649765 522.066162,220.652130 517.984741,231.463531 
	C514.123108,241.692764 505.710907,246.453400 495.288361,247.747009 
	C491.362610,248.234238 487.278229,248.133301 483.337616,247.679733 
	C472.021790,246.377289 464.150543,240.385559 460.721222,229.385880 
	C455.055115,211.211639 455.284637,193.025208 461.515198,174.607025 
M487.793976,209.124619 
	C481.627380,210.689331 479.079773,213.665924 479.351440,218.988678 
	C479.608643,224.027786 482.419647,227.268692 487.115875,227.940445 
	C493.347290,228.831787 497.638702,225.791214 498.198639,220.088089 
	C498.875610,213.192291 495.876038,209.754868 487.793976,209.124619 
z"/>
<path fill="#039DDD" opacity="1.000000" stroke="none" 
	d="
M566.406982,183.710693 
	C565.496460,179.476532 563.126221,177.405579 559.194946,177.952744 
	C552.966248,178.819672 553.267212,184.186127 552.401123,188.916473 
	C545.049866,188.916473 537.804504,188.916473 530.563965,188.916473 
	C528.208984,173.790588 540.700562,159.360245 557.507874,158.175140 
	C568.883545,157.373032 579.969360,158.644333 586.496948,169.632767 
	C592.975769,180.539139 591.981079,192.189697 585.296814,202.329468 
	C580.161438,210.119629 572.832092,216.470779 566.409180,223.397705 
	C565.339600,224.551315 563.915894,225.376572 561.632629,227.146790 
	C572.154846,227.146790 581.374268,227.146790 590.896790,227.146790 
	C590.896790,233.536026 590.896790,239.463348 590.896790,245.811447 
	C570.933533,245.811447 550.867798,245.811447 530.100098,245.811447 
	C530.100098,240.561905 529.903137,235.117767 530.246399,229.707886 
	C530.326477,228.445206 532.150146,227.201202 533.325012,226.114594 
	C542.112854,217.986786 551.212341,210.172363 559.644775,201.693390 
	C564.249817,197.062927 567.272827,191.149475 566.406982,183.710693 
z"/>
<path fill="#0DA0DE" opacity="1.000000" stroke="none" 
	d="
M353.159790,160.026917 
	C350.006653,160.401840 348.817993,159.560760 348.887024,156.551590 
	C349.076691,148.282547 348.952515,140.006302 348.061981,131.501297 
	C345.391968,139.257629 342.504669,146.948624 340.143738,154.797943 
	C338.966187,158.712875 337.330200,160.598373 332.938263,160.118759 
	C328.021118,159.581802 321.755432,161.523315 318.422180,159.125565 
	C315.079071,156.720764 314.590149,150.309967 312.918488,145.630554 
	C311.251526,140.964249 309.669220,136.267700 307.204712,131.654129 
	C307.204712,140.913879 307.204712,150.173630 307.204712,159.723267 
	C298.714417,159.723267 290.788666,159.723267 282.451752,159.723267 
	C282.451752,133.631393 282.451752,107.426376 282.451752,80.717102 
	C291.190277,80.717102 299.993683,80.584030 308.782837,80.877502 
	C309.943665,80.916267 311.507690,82.940163 312.078796,84.367294 
	C316.836884,96.257477 321.400360,108.225471 326.038666,120.163734 
	C326.627930,121.680405 327.309998,123.161018 328.346375,125.589096 
	C333.510376,111.884186 338.529938,99.146408 343.051483,86.234253 
	C344.558441,81.930916 346.532684,80.282631 351.205048,80.573814 
	C358.642548,81.037346 366.130096,80.697632 373.698120,80.697632 
	C373.698120,107.313469 373.698120,133.397598 373.698120,160.026764 
	C366.860016,160.026764 360.250916,160.026764 353.159790,160.026917 
M348.312622,85.187683 
	C341.739014,102.114578 335.165405,119.041466 328.262909,136.815247 
	C327.260773,134.439575 326.592163,132.961929 326.007507,131.451797 
	C320.481598,117.179466 315.015808,102.883469 309.385010,88.652718 
	C308.807556,87.193253 307.322113,85.090340 306.165161,85.028709 
	C299.597839,84.678848 293.002258,84.859291 286.459106,84.859291 
	C286.459106,108.958244 286.459106,132.340042 286.459106,155.684204 
	C292.082520,155.684204 297.335022,155.684204 302.981293,155.684204 
	C302.981293,143.600159 302.926880,131.807907 303.055328,120.017647 
	C303.070129,118.658890 304.103149,117.311218 304.664062,115.958405 
	C305.818115,117.017380 307.555237,117.863335 308.032440,119.169579 
	C311.342773,128.230789 314.394318,137.386612 317.522766,146.514191 
	C320.801178,156.079193 320.800140,155.931335 331.116577,156.067688 
	C334.336060,156.110245 335.791199,155.105728 336.771881,152.069778 
	C340.197479,141.464798 343.809479,130.916809 347.583130,120.430824 
	C348.173889,118.789207 349.972473,117.582245 351.212555,116.174301 
	C351.808716,117.839714 352.899078,119.498566 352.921295,121.171608 
	C353.073242,132.614594 353.000977,144.060562 353.000977,155.608047 
	C358.882050,155.608047 364.246429,155.608047 369.495087,155.608047 
	C369.495087,131.853302 369.495087,108.473366 369.495087,84.905296 
	C362.451813,84.905296 355.798065,84.905296 348.312622,85.187683 
z"/>
<path fill="#12A1DF" opacity="1.000000" stroke="none" 
	d="
M197.127457,104.999992 
	C197.127487,96.713631 197.127487,88.927254 197.127487,80.915359 
	C205.555420,80.915359 213.503067,80.915359 221.739151,80.915359 
	C221.876251,81.722206 222.118774,82.487312 222.119690,83.252724 
	C222.137161,97.745163 222.343948,112.241692 222.074234,126.729233 
	C221.561172,154.288712 193.058731,170.102631 168.974945,156.350403 
	C160.417435,151.463943 155.395401,143.966995 154.188492,134.396164 
	C153.255707,126.999260 153.392838,119.452271 153.295715,111.968872 
	C153.164032,101.820801 153.262955,91.669731 153.262955,81.101440 
	C161.571594,81.101440 169.614059,81.101440 178.265244,81.101440 
	C178.265244,85.787659 178.264084,90.561760 178.265472,95.335869 
	C178.268494,105.663872 178.189697,115.992882 178.313995,126.319435 
	C178.370438,131.009018 179.271011,135.424469 184.870010,136.729309 
	C191.910400,138.370026 196.770981,134.827484 197.024902,127.486290 
	C197.278091,120.165092 197.110519,112.829353 197.127457,104.999992 
M169.404343,84.848595 
	C165.614517,84.848595 161.824692,84.848595 158.165604,84.848595 
	C158.165604,101.691788 157.737442,117.978264 158.361923,134.224274 
	C158.638153,141.410583 162.796173,147.609024 169.049133,151.515106 
	C180.123901,158.433273 191.887756,158.523849 203.367615,152.835388 
	C213.849731,147.641327 217.913452,138.198486 218.025040,126.898003 
	C218.135269,115.734169 218.063339,104.568520 218.070480,93.403671 
	C218.072235,90.640335 218.070724,87.877007 218.070724,85.189621 
	C212.102158,85.189621 206.859390,85.189621 201.202560,85.189621 
	C201.202560,87.325737 201.204773,89.125687 201.202225,90.925644 
	C201.184982,103.090118 201.315079,115.257256 201.097687,127.418159 
	C200.947678,135.809036 196.399063,140.611832 188.868240,141.040054 
	C179.672028,141.562988 174.358368,136.636810 174.189453,126.828049 
	C173.971405,114.167061 174.046051,101.499023 174.167953,88.835693 
	C174.195755,85.949394 173.634079,84.288460 169.404343,84.848595 
z"/>
<path fill="#11A1DF" opacity="1.000000" stroke="none" 
	d="
M278.024872,149.020020 
	C278.024872,152.809402 278.024872,156.107132 278.024872,159.716919 
	C261.922363,159.716919 246.190552,159.716919 230.059174,159.716919 
	C230.059174,133.632690 230.059174,107.469536 230.059174,80.994766 
	C238.079941,80.994766 246.133194,80.994766 254.647339,80.994766 
	C254.647339,100.575432 254.647339,119.968437 254.647339,139.813751 
	C262.502472,139.813751 269.919922,139.813751 278.024872,139.813751 
	C278.024872,143.008133 278.024872,145.768234 278.024872,149.020020 
M250.544083,101.501122 
	C250.544083,96.087769 250.544083,90.674408 250.544083,85.201019 
	C244.587265,85.201019 239.371750,85.201019 234.171844,85.201019 
	C234.171844,108.913742 234.171844,132.268600 234.171844,155.646912 
	C247.555466,155.646912 260.597931,155.646912 273.554047,155.646912 
	C273.554047,151.602661 273.554047,147.896866 273.554047,143.778778 
	C265.744781,143.778778 258.343323,143.778778 250.544724,143.778778 
	C250.544724,129.738815 250.544724,116.119934 250.544083,101.501122 
z"/>
<path fill="#FBFDFE" opacity="1.000000" stroke="none" 
	d="
M398.030640,154.221710 
	C390.292572,150.942474 385.309967,145.853195 383.915619,136.769348 
	C389.727203,136.769348 395.274933,136.675827 400.811981,136.876801 
	C401.584137,136.904831 402.509979,138.270950 403.011963,139.206833 
	C405.217407,143.318649 408.939636,145.060135 413.036346,143.851318 
	C415.641815,143.082489 418.991302,140.547104 419.521362,138.234192 
	C420.055634,135.902802 418.185455,132.095764 416.154785,130.336594 
	C413.647827,128.164825 409.899902,127.410088 406.666718,126.095932 
	C402.354736,124.343307 397.827393,123.007645 393.742371,120.835083 
	C387.043640,117.272438 383.498718,111.635910 383.871368,103.720200 
	C384.235962,95.975967 387.735382,90.225945 394.644287,87.027786 
	C405.023254,82.223297 415.679230,82.279373 426.041107,87.129387 
	C432.312836,90.064957 435.931519,95.279633 437.022827,102.989326 
	C431.202026,102.989326 425.634949,103.132668 420.088348,102.859657 
	C419.067566,102.809410 417.968231,101.187958 417.181366,100.093201 
	C413.547638,95.037811 406.241272,94.687042 403.233826,99.495659 
	C401.072754,102.951027 401.736633,107.094315 405.651794,109.457771 
	C409.454376,111.753265 413.758942,113.226562 417.870117,114.998138 
	C420.619659,116.182945 423.480164,117.124016 426.180420,118.406876 
	C434.975128,122.585159 438.571014,128.186783 438.105865,136.705231 
	C437.655731,144.948334 432.167786,152.057922 423.881653,154.841660 
	C415.355713,157.705963 406.837585,157.303528 398.030640,154.221710 
z"/>
<path fill="#F7FCFE" opacity="1.000000" stroke="none" 
	d="
M488.196869,209.106384 
	C495.876038,209.754868 498.875610,213.192291 498.198639,220.088089 
	C497.638702,225.791214 493.347290,228.831787 487.115875,227.940445 
	C482.419647,227.268692 479.608643,224.027786 479.351440,218.988678 
	C479.079773,213.665924 481.627380,210.689331 488.196869,209.106384 
z"/>
<path fill="#FBFEFF" opacity="1.000000" stroke="none" 
	d="
M348.728455,85.046494 
	C355.798065,84.905296 362.451813,84.905296 369.495087,84.905296 
	C369.495087,108.473366 369.495087,131.853302 369.495087,155.608047 
	C364.246429,155.608047 358.882050,155.608047 353.000977,155.608047 
	C353.000977,144.060562 353.073242,132.614594 352.921295,121.171608 
	C352.899078,119.498566 351.808716,117.839714 351.212555,116.174301 
	C349.972473,117.582245 348.173889,118.789207 347.583130,120.430824 
	C343.809479,130.916809 340.197479,141.464798 336.771881,152.069778 
	C335.791199,155.105728 334.336060,156.110245 331.116577,156.067688 
	C320.800140,155.931335 320.801178,156.079193 317.522766,146.514191 
	C314.394318,137.386612 311.342773,128.230789 308.032440,119.169579 
	C307.555237,117.863335 305.818115,117.017380 304.664062,115.958405 
	C304.103149,117.311218 303.070129,118.658890 303.055328,120.017647 
	C302.926880,131.807907 302.981293,143.600159 302.981293,155.684204 
	C297.335022,155.684204 292.082520,155.684204 286.459106,155.684204 
	C286.459106,132.340042 286.459106,108.958244 286.459106,84.859291 
	C293.002258,84.859291 299.597839,84.678848 306.165161,85.028709 
	C307.322113,85.090340 308.807556,87.193253 309.385010,88.652718 
	C315.015808,102.883469 320.481598,117.179466 326.007507,131.451797 
	C326.592163,132.961929 327.260773,134.439575 328.262909,136.815247 
	C335.165405,119.041466 341.739014,102.114578 348.728455,85.046494 
z"/>
<path fill="#FAFDFE" opacity="1.000000" stroke="none" 
	d="
M169.888870,84.848885 
	C173.634079,84.288460 174.195755,85.949394 174.167953,88.835693 
	C174.046051,101.499023 173.971405,114.167061 174.189453,126.828049 
	C174.358368,136.636810 179.672028,141.562988 188.868240,141.040054 
	C196.399063,140.611832 200.947678,135.809036 201.097687,127.418159 
	C201.315079,115.257256 201.184982,103.090118 201.202225,90.925644 
	C201.204773,89.125687 201.202560,87.325737 201.202560,85.189621 
	C206.859390,85.189621 212.102158,85.189621 218.070724,85.189621 
	C218.070724,87.877007 218.072235,90.640335 218.070480,93.403671 
	C218.063339,104.568520 218.135269,115.734169 218.025040,126.898003 
	C217.913452,138.198486 213.849731,147.641327 203.367615,152.835388 
	C191.887756,158.523849 180.123901,158.433273 169.049133,151.515106 
	C162.796173,147.609024 158.638153,141.410583 158.361923,134.224274 
	C157.737442,117.978264 158.165604,101.691788 158.165604,84.848595 
	C161.824692,84.848595 165.614517,84.848595 169.888870,84.848885 
z"/>
<path fill="#FAFDFE" opacity="1.000000" stroke="none" 
	d="
M250.544403,102.001083 
	C250.544724,116.119934 250.544724,129.738815 250.544724,143.778778 
	C258.343323,143.778778 265.744781,143.778778 273.554047,143.778778 
	C273.554047,147.896866 273.554047,151.602661 273.554047,155.646912 
	C260.597931,155.646912 247.555466,155.646912 234.171844,155.646912 
	C234.171844,132.268600 234.171844,108.913742 234.171844,85.201019 
	C239.371750,85.201019 244.587265,85.201019 250.544083,85.201019 
	C250.544083,90.674408 250.544083,96.087769 250.544403,102.001083 
z"/>
</svg>